<svg viewBox="0 0 52 52" xml:space="preserve" xmlns="http://www.w3.org/2000/svg" enable-background="new 0 0 52 52"><path d="M18.8 22 3 33l9.7 6.8 9.7-7.2M30 32.6l-13.8 9.6L26 49l23-16-15.8-11M21 15l-5-5V3H3M49 3H36v7l-5 5h-7M3 45h4v4H3zM45 45h4v4h-4zM3 17h4v4H3zM45 17h4v4h-4zM36 32.6h-6M22.4 32.6H15M22.2 29.7l-4.3-2.1M34.1 27.6l-4.3 2.1M26 23v8" fill="none" stroke="#000000" stroke-width="2" stroke-linecap="round" stroke-linejoin="round" stroke-miterlimit="10" class="stroke-454545"></path><path d="M21 15v5l3.8 3h2.5l3.7-3v-5" fill="none" stroke="#000000" stroke-width="2" stroke-linecap="round" stroke-linejoin="round" stroke-miterlimit="10" class="stroke-454545"></path></svg>