<?xml version="1.0" encoding="utf-8"?>
<!-- Svg Vector Icons : http://www.onlinewebfonts.com/icon -->
<!DOCTYPE svg PUBLIC "-//W3C//DTD SVG 1.1//EN" "http://www.w3.org/Graphics/SVG/1.1/DTD/svg11.dtd">
<svg version="1.1" xmlns="http://www.w3.org/2000/svg" xmlns:xlink="http://www.w3.org/1999/xlink" x="0px" y="0px" viewBox="0 0 256 256" enable-background="new 0 0 256 256" xml:space="preserve">
<metadata> Svg Vector Icons : http://www.onlinewebfonts.com/icon </metadata>
<g><g><g><g><path fill="#000000" d="M222.4,20.1L87.7,10c-0.9-0.1-1.7,0.2-2.4,0.8c-0.3,0.3-0.5,0.6-0.7,1L32.9,29.1c-1.3,0.4-2.2,1.6-2.2,3v180.1c0,1.2,0.6,2.2,1.6,2.7l52.2,29c0.2,0.5,0.5,0.9,0.8,1.3c0.6,0.5,1.3,0.8,2.1,0.8c0.1,0,0.2,0,0.4,0l134.6-15.1c1.6-0.2,2.8-1.5,2.8-3.1V23.3C225.3,21.6,224,20.2,222.4,20.1z M83.7,236.2L37,210.3V34.4l46.7-15.6V236.2z M219,224.9L90.7,239.3V16.6L219,26.2L219,224.9L219,224.9z"/><path fill="#000000" d="M111.9,187.1c0.1,0,0.2,0,0.2,0l88.2-6.3c3.1-0.1,5.6-2.6,5.6-5.7V57.4c0-3.1-2.5-5.6-5.6-5.7l-88.2-6.3c-0.1,0-0.1,0-0.2,0c-3.1,0-5.7,2.6-5.7,5.7v130.4C106.3,184.6,108.8,187.1,111.9,187.1z M151.1,83.9c0.1-0.1,0.2-0.2,0.3-0.3c0,0,0,0,0.1-0.1c0.1-0.1,0.2-0.2,0.3-0.3l0,0c1.5-1.4,3.5-3.7,4.7-6.4c3.6-2.2,5.9-6.1,5.9-10.6c0-0.6-0.1-1.2-0.1-1.8l10.7,0.5c1.4,0,2.5-1.1,2.5-2.5v-6.2l24.2,1.7v116.6l-79.1,5.6v-28.8l70.9-2.5v25.6h2.5v-28.2l-29.7,1v-46.7l-0.4,0.2l-13.8-5.6c0.6-0.2,1.3-0.3,1.9-0.5c2.3-0.5,4.7-1,5.5-2.8c0.4-1,0.3-2.1-0.4-3.3c-1.4-2.5-3.4-3-4.8-3.4c-0.8-0.2-1.4-0.4-1.8-0.9C150.6,84.3,150.8,84.1,151.1,83.9z M147.1,100.9v2.6l-14.2,5.1v-2.6L147.1,100.9z M132.9,104.4v-2.3l14.2-5.5v2.6L132.9,104.4z M147.1,105.1v2.6l-14.2,5.1v-2.6L147.1,105.1z M147.1,109.4v2.6l-14.2,5.1v-2.6L147.1,109.4z M147.1,113.5v2.6l-14.2,5.1v-2.6L147.1,113.5z M147.1,117.8v2.6l-14.2,5.1v-2.6L147.1,117.8z M147.1,122v2.6l-14.2,5.1v-2.6L147.1,122z M147.1,126.2v2.6l-14.2,5.1v-2.6L147.1,126.2z M147.1,130.4v2.6l-14.2,5.1v-2.6L147.1,130.4z M147.1,134.6v2.6l-14.2,5.1v-2.6L147.1,134.6z M147.1,138.8v9.1l-14.2,0.5v-4.5L147.1,138.8z M162.8,106v2.6l-14.2-5.1v-2.6L162.8,106z M148.6,99.3v-2.6l14.2,5.5v2.2L148.6,99.3z M162.8,110.2v2.6l-14.2-5.1v-2.6L162.8,110.2z M162.8,114.4v2.6l-14.2-5.1v-2.6L162.8,114.4z M162.8,118.6v2.6l-14.2-5.1v-2.6L162.8,118.6z M162.8,122.8v2.6l-14.2-5.1v-2.6L162.8,122.8z M162.8,127v2.6l-14.2-5.1v-2.6L162.8,127z M162.8,131.2v2.6l-14.2-5.1v-2.6L162.8,131.2z M162.8,135.5v2.6l-14.2-5.1v-2.6L162.8,135.5z M162.8,139.6v2.6l-14.2-5.1v-2.6L162.8,139.6z M162.8,143.9v3.5l-14.2,0.5v-9.1L162.8,143.9z M112.6,51.7l14.1,1v7.8c0,1.4,1.1,2.5,2.5,2.5l8.5,0.4c-0.2,0.9-0.4,1.9-0.4,2.9c0,4.5,2.4,8.4,5.9,10.6c1,2.3,2.6,4.2,3.9,5.6c0,1.1,0.4,2.1,0.4,2.1s1.6,2.6,3.9,3.2c1.3,0.3,2.4,0.6,3.2,2.1c0.3,0.5,0.3,0.9,0.3,1c-0.3,0.6-2.3,1.1-3.7,1.4c-2.4,0.5-4.8,1.1-5.6,2.9l0.1,0l-14,5.6l-0.4-0.2v47.9l-13.4,0.5v0.1l-5.5,0.6V51.7L112.6,51.7z M112.6,152.2l5.5-0.6v28.9l-5.5,0.4V152.2z"/><path fill="#000000" d="M48.3,179.9l22.3,8c0.3,0.1,0.7,0.2,1.1,0.2c3.1,0,5.7-2.6,5.7-5.7V52c0-3.1-2.6-5.7-5.7-5.7c-0.2,0-0.4,0-0.6,0l-22.5,4.4c-3,0.2-5.3,2.6-5.3,5.7v117.7C43.3,177.1,45.5,179.6,48.3,179.9z M49.6,57.1l21.5-4.2v101.6l-12,2v20.4l2.5,0.6v-19l9.5-1.6v24.4l-21-7.6c-0.1,0-0.3-0.1-0.4-0.1V57.1z"/><path fill="#000000" d="M129,212L129,212c1.5-0.7,2.2-2,2.1-3.3c0-1.8-1.4-3.2-3.9-3c-1.4,0.1-2.8,0.7-3.4,1.3l0.6,1.8c0.5-0.4,1.4-1,2.4-1.1c1.3-0.1,2,0.6,2,1.5c0,1.3-1.3,2-2.3,2.1l-1,0.1l0,1.9l1.1-0.1c1.4-0.1,2.7,0.5,2.8,2c0,1.1-0.6,2.2-2.4,2.4c-1.2,0.1-2.3-0.3-2.8-0.6l-0.5,2c0.7,0.4,2,0.8,3.4,0.6c3-0.2,4.6-2.2,4.6-4.5C131.7,213.3,130.5,212.2,129,212z"/><path fill="#000000" d="M136.1,204.6c-1.3,0.1-2.6,0.3-3.6,0.6l0.4,13.7c0.7,0,1.8,0,3.1-0.1c2.4-0.2,4.4-1,5.6-2.4c1.2-1.3,1.8-3.2,1.8-5.7c-0.1-2.4-0.9-4-2.1-4.9C140.1,204.8,138.5,204.4,136.1,204.6z M136.4,216.7c-0.5,0-0.9,0.1-1.3,0l-0.3-9.9c0.3-0.1,0.8-0.2,1.5-0.3c2.9-0.2,4.5,1.4,4.6,4.5C141.1,214.5,139.4,216.5,136.4,216.7z"/><path fill="#000000" d="M153.3,204.2c-1.4,0.1-2.5,0.3-3.2,0.5l0.4,12.6l2.1-0.2l-0.1-4.8c0.3,0,0.6,0,1,0c1.5-0.1,2.8-0.7,3.6-1.7c0.6-0.7,0.9-1.8,0.9-3c0-1.2-0.5-2.2-1.2-2.7C156,204.3,154.8,204.1,153.3,204.2z M153.4,210.5c-0.4,0-0.8,0-1,0l-0.1-4.3c0.2-0.1,0.7-0.2,1.2-0.2c1.4-0.1,2.4,0.6,2.4,2C155.9,209.5,155,210.4,153.4,210.5z"/><path fill="#000000" d="M163.6,206.8c-0.9,0.1-1.8,0.8-2.2,2.2h-0.1l-0.1-1.8l-1.8,0.1c0.1,0.8,0.1,1.7,0.2,3l0.2,6.3l2.1-0.2l-0.1-4.8c0-0.3,0-0.5,0-0.7c0.1-1.1,0.8-1.8,1.8-1.9c0.3,0,0.4,0,0.6,0l-0.1-2.2C164,206.8,163.8,206.8,163.6,206.8z"/><path fill="#000000" d="M165.6 206.8L165.8 216.1 168 215.9 167.7 206.6 z"/><path fill="#000000" d="M166.6,205.4c0.7-0.1,1.2-0.7,1.2-1.3c0-0.7-0.5-1.2-1.2-1.2c-0.7,0-1.2,0.7-1.1,1.4C165.4,205,165.9,205.5,166.6,205.4z"/><path fill="#000000" d="M174.5,205.9c-1.4,0.1-2.3,1.1-2.6,1.8h0l-0.1-1.4l-1.9,0.2c0.1,0.8,0.1,1.7,0.1,2.7l0.2,6.5l2.1-0.2l-0.2-5.4c0-0.3,0-0.6,0.1-0.8c0.2-0.7,0.8-1.4,1.6-1.5c1.2-0.1,1.6,0.9,1.7,2.2l0.2,5.2l2.1-0.2l-0.2-5.5C177.5,206.6,176,205.7,174.5,205.9z"/><path fill="#000000" d="M183.4,212.9c-0.8,0.1-1.1-0.5-1.1-1.6l-0.1-4.1l2-0.2l0-1.8l-2,0.2l-0.1-2.7l-2,0.7l0.1,2.1l-1.2,0.1l0,1.7l1.2-0.1l0.1,4.3c0,1.2,0.3,2,0.7,2.6c0.4,0.4,1.1,0.7,1.8,0.6c0.7-0.1,1.2-0.2,1.5-0.4l-0.1-1.8C184,212.8,183.8,212.9,183.4,212.9z"/><path fill="#000000" d="M189.1,204.6c-2.7,0.2-4,2.8-3.9,5.3c0.1,2.8,1.7,4.6,4.5,4.3c1.2-0.1,2.2-0.4,2.9-0.8l-0.3-1.6c-0.6,0.3-1.3,0.5-2.3,0.6c-1.3,0.1-2.6-0.5-2.6-2.2l5.6-0.5c0-0.2,0-0.6,0-1C192.8,206.8,191.8,204.4,189.1,204.6z M187.2,208.7c0-1,0.6-2.3,1.9-2.4c1.4-0.1,1.8,1.3,1.8,2.1L187.2,208.7z"/><path fill="#000000" d="M198.6,203.8c-0.9,0.1-1.8,0.8-2.2,2.2h-0.1l-0.1-1.8l-1.8,0.1c0.1,0.8,0.1,1.7,0.2,3l0.2,6.3l2.1-0.2l-0.2-4.7c0-0.3,0-0.5,0-0.7c0.1-1.1,0.8-1.8,1.8-1.9c0.3,0,0.5,0,0.6,0l-0.1-2.2C198.9,203.8,198.8,203.8,198.6,203.8z"/></g></g><g></g><g></g><g></g><g></g><g></g><g></g><g></g><g></g><g></g><g></g><g></g><g></g><g></g><g></g><g></g></g></g>
</svg>