<?xml version="1.0" ?><svg id="Outline" viewBox="0 0 512 512" xmlns="http://www.w3.org/2000/svg"><title/><g id="Car-belt"><path d="M256,272a48,48,0,1,0-48-48A48.054,48.054,0,0,0,256,272Zm0-80a32,32,0,1,1-32,32A32.036,32.036,0,0,1,256,192Z"/><circle cx="256" cy="152" r="8"/><circle cx="256" cy="296" r="8"/><circle cx="184" cy="224" r="8"/><circle cx="328" cy="224" r="8"/><path d="M210.745,178.745a8,8,0,1,0-11.314,0A8,8,0,0,0,210.745,178.745Z"/><path d="M301.255,269.255a8,8,0,1,0,11.314,0A8,8,0,0,0,301.255,269.255Z"/><path d="M210.745,280.569a8,8,0,1,0-11.314,0A8,8,0,0,0,210.745,280.569Z"/><path d="M312.569,178.745a8,8,0,1,0-11.314,0A8,8,0,0,0,312.569,178.745Z"/><circle cx="256" cy="224" r="16"/><path d="M336,400a24,24,0,1,0,24,24A24.027,24.027,0,0,0,336,400Zm0,32a8,8,0,1,1,8-8A8.009,8.009,0,0,1,336,432Z"/><path d="M80,112A32,32,0,1,0,48,80,32.036,32.036,0,0,0,80,112Zm0-48A16,16,0,1,1,64,80,16.019,16.019,0,0,1,80,64Z"/><path d="M440,152a24,24,0,1,0-24-24A24.027,24.027,0,0,0,440,152Zm0-32a8,8,0,1,1-8,8A8.009,8.009,0,0,1,440,120Z"/><path d="M487.812,157.125a55.975,55.975,0,0,0-70.166-80.456l-143.5,31.2L116.291,27.324a63.975,63.975,0,1,0-69.6,107.3L160.082,281.77a112.751,112.751,0,0,0,14.311,18.853l93.691,147.245a71.989,71.989,0,0,0,139.572-16.886ZM420,280a20,20,0,1,1,20-20A20.023,20.023,0,0,1,420,280Zm60-152a40,40,0,1,1-40-40A40.045,40.045,0,0,1,480,128ZM392.41,98.53a55.964,55.964,0,0,0,72.6,79.555l-17.267,58.994A35.994,35.994,0,1,0,431,294.276L401.659,394.513a71.986,71.986,0,0,0-136.814,18.46L209.4,325.833a111.994,111.994,0,1,0,89.99-205.085l-2.74-1.4ZM352,224a96,96,0,1,1-96-96A96.108,96.108,0,0,1,352,224ZM32,80a48,48,0,1,1,48,48A48.054,48.054,0,0,1,32,80Zm41.885,63.7c2.013.192,4.052.3,6.115.3a63.974,63.974,0,0,0,59.825-86.706L247.65,112.311A112.058,112.058,0,0,0,144.58,235.44ZM336,480a56,56,0,1,1,56-56A56.063,56.063,0,0,1,336,480Z"/><circle cx="336" cy="384" r="8"/><circle cx="336" cy="464" r="8"/><circle cx="296" cy="424" r="8"/><circle cx="376" cy="424" r="8"/></g></svg>