<?xml version="1.0" encoding="utf-8"?>
<!-- Svg Vector Icons : http://www.onlinewebfonts.com/icon -->
<!DOCTYPE svg PUBLIC "-//W3C//DTD SVG 1.1//EN" "http://www.w3.org/Graphics/SVG/1.1/DTD/svg11.dtd">
<svg version="1.1" xmlns="http://www.w3.org/2000/svg" xmlns:xlink="http://www.w3.org/1999/xlink" x="0px" y="0px" viewBox="0 0 256 256" enable-background="new 0 0 256 256" xml:space="preserve">
<metadata> Svg Vector Icons : http://www.onlinewebfonts.com/icon </metadata>
<g><g><path fill="#000000" d="M231.5,46.5l-37.1-34.2c-1.7-1.5-4.1-2.4-6.5-2.4h-157c-5.1,0-9.2,3.7-9.2,8.2v219.6c0,4.5,4.1,8.2,9.2,8.2h191.4c7.6,0,12-2.5,12-11.7V52.4C234.3,50.2,233.2,48.1,231.5,46.5z M222.2,234.3l-188.6-0.1V21.8l141.5,0.1l0,30.4c0,2.7,2.5,4.9,5.5,4.9h41.8L222.2,234.3z M198.3,121.9c0-1.2-0.5-2.4-1.4-3.3c-0.9-0.9-2.1-1.4-3.3-1.4h-7.2c-3,0-6.2-2.3-7.1-5.2l-3.7-9.1c-1.4-2.6-0.8-6.5,1.3-8.6l5.1-5.1c0.8-0.8,1.4-2,1.4-3.3c0-1.3-0.5-2.5-1.4-3.3l-8.7-8.7c-0.8-0.9-2-1.4-3.3-1.4c-1.3,0-2.5,0.5-3.3,1.4l-5.1,5.1c-2.1,2.1-6,2.7-8.6,1.3l-9.1-3.7c-2.8-0.9-5.2-4-5.2-7v-7.2c0-1.2-0.5-2.4-1.4-3.3c-0.9-0.9-2.1-1.4-3.3-1.4h-12.3c-1.2,0-2.4,0.5-3.3,1.4c-0.9,0.9-1.4,2.1-1.4,3.3v7.2c0,3-2.3,6.2-5.2,7l-9.1,3.7c-2.6,1.4-6.5,0.8-8.6-1.3l-5.1-5.1c-0.8-0.8-2-1.4-3.3-1.4s-2.5,0.5-3.3,1.4l-8.7,8.7c-0.8,0.8-1.4,2-1.4,3.3c0,1.3,0.5,2.5,1.4,3.3l5.1,5.1c2.1,2.1,2.7,6,1.3,8.6l-3.7,9.1c-0.9,2.8-4,5.2-7,5.2h-7.2c-1.2,0-2.4,0.5-3.3,1.4c-0.9,0.9-1.4,2.1-1.4,3.3v12.3c0,1.2,0.5,2.4,1.4,3.3c0.9,0.9,2.1,1.4,3.3,1.4h7.2c3,0,6.1,2.3,7,5.2l3.8,9.1c1.4,2.6,0.8,6.5-1.3,8.6l-5.1,5.1c-0.9,0.8-1.4,2-1.4,3.3c0,1.3,0.5,2.5,1.4,3.3l8.7,8.7c0.8,0.8,2,1.4,3.3,1.4s2.5-0.5,3.3-1.4l5.1-5.1c2.1-2.1,6-2.7,8.6-1.3l9.1,3.7c2.8,0.9,5.2,4,5.2,7v7.2c0,1.2,0.5,2.4,1.4,3.3c0.9,0.9,2.1,1.4,3.3,1.4h12.3c1.2,0,2.4-0.5,3.3-1.4c0.9-0.9,1.4-2.1,1.4-3.3v-7.2c0-3,2.3-6.1,5.2-7l9.1-3.7c2.6-1.4,6.5-0.8,8.6,1.3l5.1,5.1c0.9,0.8,2,1.4,3.3,1.4c1.3,0,2.5-0.5,3.3-1.4l8.7-8.7c0.9-0.9,1.4-2,1.4-3.3c0-1.3-0.5-2.5-1.4-3.3l-5.1-5.1c-2.1-2.1-2.7-6-1.3-8.6l3.7-9.1c0.9-2.8,4.1-5.2,7.1-5.2h7.2c1.2,0,2.4-0.5,3.3-1.4c0.9-0.9,1.4-2.1,1.4-3.3V121.9L198.3,121.9z M154.9,128c0,15-12.1,27.1-27.1,27.1c-15,0-27.1-12.1-27.1-27.1c0-15,12.2-27.1,27.1-27.1C142.7,100.9,154.9,113,154.9,128"/></g></g>
</svg>